<?xml version="1.0" encoding="UTF-8" standalone="no"?>
<!-- Created with Inkscape (http://www.inkscape.org/) -->

<svg
   version="1.1"
   id="svg2"
   xml:space="preserve"
   width="784"
   height="386.66666"
   viewBox="0 0 784 386.66666"
   sodipodi:docname="birthweights.svg"
   inkscape:version="1.1.2 (1:1.1+202202050852+0a00cf5339)"
   inkscape:export-filename="/home/dgerard/Dropbox/teaching/stat_413_613/lectures/04_basic_stats/cartoons/birthweights.png"
   inkscape:export-xdpi="96"
   inkscape:export-ydpi="96"
   xmlns:inkscape="http://www.inkscape.org/namespaces/inkscape"
   xmlns:sodipodi="http://sodipodi.sourceforge.net/DTD/sodipodi-0.dtd"
   xmlns="http://www.w3.org/2000/svg"
   xmlns:svg="http://www.w3.org/2000/svg"
   xmlns:rdf="http://www.w3.org/1999/02/22-rdf-syntax-ns#"
   xmlns:cc="http://creativecommons.org/ns#"
   xmlns:dc="http://purl.org/dc/elements/1.1/"><metadata
     id="metadata8"><rdf:RDF><cc:Work
         rdf:about=""><dc:format>image/svg+xml</dc:format><dc:type
           rdf:resource="http://purl.org/dc/dcmitype/StillImage" /></cc:Work></rdf:RDF></metadata><defs
     id="defs6"><marker
       inkscape:stockid="Arrow1Send"
       orient="auto"
       refY="0.0"
       refX="0.0"
       id="Arrow1Send"
       style="overflow:visible;"
       inkscape:isstock="true"><path
         id="path1088"
         d="M 0.0,0.0 L 5.0,-5.0 L -12.5,0.0 L 5.0,5.0 L 0.0,0.0 z "
         style="fill-rule:evenodd;stroke:#000000;stroke-width:1pt;stroke-opacity:1;fill:#000000;fill-opacity:1"
         transform="scale(0.2) rotate(180) translate(6,0)" /></marker><marker
       inkscape:stockid="Arrow1Mend"
       orient="auto"
       refY="0.0"
       refX="0.0"
       id="Arrow1Mend"
       style="overflow:visible;"
       inkscape:isstock="true"><path
         id="path1082"
         d="M 0.0,0.0 L 5.0,-5.0 L -12.5,0.0 L 5.0,5.0 L 0.0,0.0 z "
         style="fill-rule:evenodd;stroke:#000000;stroke-width:1pt;stroke-opacity:1;fill:#000000;fill-opacity:1"
         transform="scale(0.4) rotate(180) translate(10,0)" /></marker><clipPath
       clipPathUnits="userSpaceOnUse"
       id="clipPath44"><path
         d="M 46.21,32.79 H 583.27 V 284.77 H 46.21 Z"
         id="path42"
         inkscape:connector-curvature="0" /></clipPath></defs><sodipodi:namedview
     pagecolor="#ffffff"
     bordercolor="#666666"
     borderopacity="1"
     objecttolerance="10"
     gridtolerance="10"
     guidetolerance="10"
     inkscape:pageopacity="0"
     inkscape:pageshadow="2"
     inkscape:window-width="1848"
     inkscape:window-height="1016"
     id="namedview4"
     showgrid="false"
     inkscape:zoom="0.92091837"
     inkscape:cx="749.79501"
     inkscape:cy="192.74238"
     inkscape:window-x="72"
     inkscape:window-y="27"
     inkscape:window-maximized="1"
     inkscape:current-layer="g10"
     inkscape:pagecheckerboard="0" /><g
     id="g10"
     inkscape:groupmode="layer"
     inkscape:label="birthweights"
     transform="matrix(1.3333333,0,0,-1.3333333,0,386.66667)"><g
   id="g12" /><g
   id="g14" /><g
   id="g16" /><g
   id="g18" /><g
   id="g20" /><g
   id="g22" /><g
   id="g24" /><g
   id="g26" /><g
   id="g28" /><g
   id="g30" /><g
   id="g32"><path
     d="M 0,0 H 588.75 V 290.25 H 0 Z"
     style="fill:#ffffff;fill-opacity:1;fill-rule:nonzero;stroke:#ffffff;stroke-width:1.07000005;stroke-linecap:round;stroke-linejoin:round;stroke-miterlimit:10;stroke-dasharray:none;stroke-opacity:1"
     id="path34"
     inkscape:connector-curvature="0" /></g><g
   id="g36" /><g
   id="g38"><g
     id="g40"
     clip-path="url(#clipPath44)"><path
       d="M 46.21,32.79 H 583.27 V 284.77 H 46.21 Z"
       style="fill:#ffffff;fill-opacity:1;fill-rule:nonzero;stroke:none"
       id="path46"
       inkscape:connector-curvature="0" /><path
       d="M 46.21,73.85 H 583.27"
       style="fill:none;stroke:#ebebeb;stroke-width:0.52999997;stroke-linecap:butt;stroke-linejoin:round;stroke-miterlimit:10;stroke-dasharray:none;stroke-opacity:1"
       id="path48"
       inkscape:connector-curvature="0" /><path
       d="M 46.21,133.06 H 583.27"
       style="fill:none;stroke:#ebebeb;stroke-width:0.52999997;stroke-linecap:butt;stroke-linejoin:round;stroke-miterlimit:10;stroke-dasharray:none;stroke-opacity:1"
       id="path50"
       inkscape:connector-curvature="0" /><path
       d="M 46.21,192.26 H 583.27"
       style="fill:none;stroke:#ebebeb;stroke-width:0.52999997;stroke-linecap:butt;stroke-linejoin:round;stroke-miterlimit:10;stroke-dasharray:none;stroke-opacity:1"
       id="path52"
       inkscape:connector-curvature="0" /><path
       d="M 46.21,251.47 H 583.27"
       style="fill:none;stroke:#ebebeb;stroke-width:0.52999997;stroke-linecap:butt;stroke-linejoin:round;stroke-miterlimit:10;stroke-dasharray:none;stroke-opacity:1"
       id="path54"
       inkscape:connector-curvature="0" /><path
       d="M 139.71,32.79 V 284.77"
       style="fill:none;stroke:#ebebeb;stroke-width:0.52999997;stroke-linecap:butt;stroke-linejoin:round;stroke-miterlimit:10;stroke-dasharray:none;stroke-opacity:1"
       id="path56"
       inkscape:connector-curvature="0" /><path
       d="M 251.91,32.79 V 284.77"
       style="fill:none;stroke:#ebebeb;stroke-width:0.52999997;stroke-linecap:butt;stroke-linejoin:round;stroke-miterlimit:10;stroke-dasharray:none;stroke-opacity:1"
       id="path58"
       inkscape:connector-curvature="0" /><path
       d="M 364.1,32.79 V 284.77"
       style="fill:none;stroke:#ebebeb;stroke-width:0.52999997;stroke-linecap:butt;stroke-linejoin:round;stroke-miterlimit:10;stroke-dasharray:none;stroke-opacity:1"
       id="path60"
       inkscape:connector-curvature="0" /><path
       d="M 476.3,32.79 V 284.77"
       style="fill:none;stroke:#ebebeb;stroke-width:0.52999997;stroke-linecap:butt;stroke-linejoin:round;stroke-miterlimit:10;stroke-dasharray:none;stroke-opacity:1"
       id="path62"
       inkscape:connector-curvature="0" /><path
       d="M 46.21,44.24 H 583.27"
       style="fill:none;stroke:#ebebeb;stroke-width:1.07000005;stroke-linecap:butt;stroke-linejoin:round;stroke-miterlimit:10;stroke-dasharray:none;stroke-opacity:1"
       id="path64"
       inkscape:connector-curvature="0" /><path
       d="M 46.21,103.45 H 583.27"
       style="fill:none;stroke:#ebebeb;stroke-width:1.07000005;stroke-linecap:butt;stroke-linejoin:round;stroke-miterlimit:10;stroke-dasharray:none;stroke-opacity:1"
       id="path66"
       inkscape:connector-curvature="0" /><path
       d="M 46.21,162.66 H 583.27"
       style="fill:none;stroke:#ebebeb;stroke-width:1.07000005;stroke-linecap:butt;stroke-linejoin:round;stroke-miterlimit:10;stroke-dasharray:none;stroke-opacity:1"
       id="path68"
       inkscape:connector-curvature="0" /><path
       d="M 46.21,221.87 H 583.27"
       style="fill:none;stroke:#ebebeb;stroke-width:1.07000005;stroke-linecap:butt;stroke-linejoin:round;stroke-miterlimit:10;stroke-dasharray:none;stroke-opacity:1"
       id="path70"
       inkscape:connector-curvature="0" /><path
       d="M 46.21,281.07 H 583.27"
       style="fill:none;stroke:#ebebeb;stroke-width:1.07000005;stroke-linecap:butt;stroke-linejoin:round;stroke-miterlimit:10;stroke-dasharray:none;stroke-opacity:1"
       id="path72"
       inkscape:connector-curvature="0" /><path
       d="M 83.62,32.79 V 284.77"
       style="fill:none;stroke:#ebebeb;stroke-width:1.07000005;stroke-linecap:butt;stroke-linejoin:round;stroke-miterlimit:10;stroke-dasharray:none;stroke-opacity:1"
       id="path74"
       inkscape:connector-curvature="0" /><path
       d="M 195.81,32.79 V 284.77"
       style="fill:none;stroke:#ebebeb;stroke-width:1.07000005;stroke-linecap:butt;stroke-linejoin:round;stroke-miterlimit:10;stroke-dasharray:none;stroke-opacity:1"
       id="path76"
       inkscape:connector-curvature="0" /><path
       d="M 308.01,32.79 V 284.77"
       style="fill:none;stroke:#ebebeb;stroke-width:1.07000005;stroke-linecap:butt;stroke-linejoin:round;stroke-miterlimit:10;stroke-dasharray:none;stroke-opacity:1"
       id="path78"
       inkscape:connector-curvature="0" /><path
       d="M 420.2,32.79 V 284.77"
       style="fill:none;stroke:#ebebeb;stroke-width:1.07000005;stroke-linecap:butt;stroke-linejoin:round;stroke-miterlimit:10;stroke-dasharray:none;stroke-opacity:1"
       id="path80"
       inkscape:connector-curvature="0" /><path
       d="M 532.4,32.79 V 284.77"
       style="fill:none;stroke:#ebebeb;stroke-width:1.07000005;stroke-linecap:butt;stroke-linejoin:round;stroke-miterlimit:10;stroke-dasharray:none;stroke-opacity:1"
       id="path82"
       inkscape:connector-curvature="0" /><path
       d="m 308.53,44.24 v 181 l 0.95,3.3 0.96,3.19 0.95,3.08 0.96,2.95 0.96,2.81 0.95,2.67 0.96,2.49 0.95,2.33 0.96,2.17 0.95,2.01 0.96,1.85 0.95,1.7 0.96,1.54 0.95,1.38 0.96,1.24 0.96,1.1 0.95,0.99 0.96,0.88 0.95,0.78 0.96,0.7 0.95,0.62 0.96,0.57 0.95,0.52 0.96,0.5 0.95,0.48 0.96,0.47 0.96,0.48 0.95,0.49 0.96,0.5 0.95,0.51 0.96,0.53 0.95,0.53 0.96,0.52 0.95,0.51 0.96,0.47 0.95,0.42 0.96,0.35 0.96,0.26 0.95,0.16 0.96,0.03 0.95,-0.11 0.96,-0.31 0.95,-0.48 0.96,-0.66 0.95,-0.86 0.96,-1.05 0.95,-1.24 0.96,-1.44 0.96,-1.66 0.95,-1.83 0.96,-1.99 0.95,-2.15 0.96,-2.29 0.95,-2.41 0.96,-2.53 0.95,-2.65 0.96,-2.74 0.95,-2.81 0.96,-2.89 0.96,-2.95 0.95,-3.02 0.96,-3.07 0.95,-3.13 0.96,-3.19 0.95,-3.24 0.96,-3.28 0.95,-3.34 0.96,-3.38 0.95,-3.43 V 44.24 Z"
       style="fill:#0000ff;fill-opacity:0.39215687;fill-rule:nonzero;stroke:none"
       id="path84"
       inkscape:connector-curvature="0" /><path
       d="m 70.62,44.4 0.95,0.05 0.96,0.07 0.96,0.09 0.95,0.11 0.96,0.14 0.95,0.17 0.96,0.22 0.95,0.28 0.96,0.34 0.95,0.4 0.96,0.49 0.95,0.58 0.96,0.67 0.96,0.8 0.95,0.94 0.96,1.07 0.95,1.22 0.96,1.36 0.95,1.51 0.96,1.67 0.95,1.85 0.96,2 0.95,2.13 0.96,2.26 0.96,2.35 0.95,2.44 0.96,2.48 0.95,2.51 0.96,2.49 0.95,2.42 0.96,2.32 0.95,2.19 0.96,2.02 0.95,1.8 0.96,1.52 0.96,1.23 0.95,0.92 0.96,0.6 0.95,0.27 0.96,-0.06 0.95,-0.4 0.96,-0.78 0.95,-1.08 0.96,-1.37 0.95,-1.61 0.96,-1.83 0.96,-2.02 0.95,-2.18 0.96,-2.3 0.95,-2.36 0.96,-2.39 0.95,-2.38 0.96,-2.36 0.95,-2.29 0.96,-2.2 0.95,-2.08 0.96,-1.96 0.96,-1.82 0.95,-1.68 0.96,-1.54 0.95,-1.39 0.96,-1.26 0.95,-1.09 0.96,-0.97 0.95,-0.85 0.96,-0.73 0.95,-0.64 0.96,-0.54 0.96,-0.45 0.95,-0.37 0.96,-0.3 0.95,-0.24 0.96,-0.19 0.95,-0.15 0.96,-0.1 0.95,-0.07 0.96,-0.04 0.95,-0.02 h 0.96 l 0.96,0.02 0.95,0.03 0.96,0.03 0.95,0.04 0.96,0.04 0.95,0.03 0.96,0.03 0.95,0.03 0.96,0.01 0.95,0.01 h 0.96 l 0.96,-0.01 0.95,-0.02 0.96,-0.03 0.95,-0.03 0.96,-0.04 0.95,-0.04 0.96,-0.05 0.95,-0.04 0.96,-0.04 0.95,-0.04 0.96,-0.04 0.96,-0.03 0.95,-0.02 0.96,-0.01 h 0.95 l 0.96,0.01 0.95,0.02 0.96,0.03 0.95,0.05 0.96,0.05 0.95,0.08 0.96,0.08 0.96,0.1 0.95,0.12 0.96,0.13 0.95,0.15 0.96,0.16 0.95,0.19 0.96,0.2 0.95,0.22 0.96,0.24 0.95,0.26 0.96,0.28 0.96,0.3 0.95,0.32 0.96,0.33 0.95,0.36 0.96,0.37 0.95,0.38 0.96,0.41 0.95,0.41 0.96,0.43 0.95,0.44 0.96,0.45 0.96,0.46 0.95,0.46 0.96,0.46 0.95,0.45 0.96,0.45 0.95,0.44 0.96,0.42 0.95,0.4 0.96,0.38 0.95,0.36 0.96,0.33 0.96,0.29 0.95,0.26 0.96,0.23 0.95,0.2 0.96,0.16 0.95,0.15 0.96,0.11 0.95,0.1 0.96,0.08 0.95,0.08 0.96,0.08 0.96,0.09 0.95,0.1 0.96,0.11 0.95,0.15 0.96,0.18 0.95,0.22 0.96,0.26 0.95,0.3 0.96,0.35 0.95,0.39 0.96,0.45 0.96,0.49 0.95,0.54 0.96,0.58 0.95,0.62 0.96,0.66 0.95,0.7 0.96,0.74 0.95,0.77 0.96,0.8 0.96,0.83 0.95,0.85 0.96,0.89 0.95,0.91 0.96,0.94 0.95,0.96 0.96,0.99 0.95,1.01 0.96,1.04 0.95,1.05 0.96,1.08 0.96,1.09 0.95,1.11 0.96,1.13 0.95,1.13 0.96,1.13 0.95,1.15 0.96,1.15 0.95,1.15 0.96,1.16 0.95,1.16 0.96,1.17 0.96,1.19 0.95,1.22 0.96,1.24 0.95,1.29 0.96,1.33 0.95,1.39 0.96,1.47 0.95,1.53 0.96,1.62 0.95,1.74 0.96,1.83 0.96,1.94 0.95,2.05 0.96,2.14 0.95,2.26 0.96,2.34 0.95,2.46 0.96,2.54 0.95,2.61 0.96,2.66 0.95,2.72 0.96,2.76 0.96,2.79 0.95,2.81 0.96,2.83 0.95,2.83 0.96,2.84 0.95,2.85 0.96,2.85 0.95,2.86 0.96,2.89 0.95,2.91 0.96,2.94 0.96,2.98 0.95,3.03 0.96,3.09 0.95,3.15 0.96,3.22 0.95,3.29 0.96,3.36 0.95,3.42 0.96,3.47 0.95,3.53 0.96,3.56 0.96,3.6 0.95,3.6 0.96,3.6 0.95,3.57 0.96,3.53 0.95,3.48 0.96,3.41 0.95,3.3 0.96,3.19 0.95,3.08 0.96,2.95 0.96,2.81 0.95,2.67 0.96,2.49 0.95,2.33 0.96,2.17 0.95,2.01 0.96,1.85 0.95,1.7 0.96,1.54 0.95,1.38 0.96,1.24 0.96,1.1 0.95,0.99 0.96,0.88 0.95,0.78 0.96,0.7 0.95,0.62 0.96,0.57 0.95,0.52 0.96,0.5 0.95,0.48 0.96,0.47 0.96,0.48 0.95,0.49 0.96,0.5 0.95,0.51 0.96,0.53 0.95,0.53 0.96,0.52 0.95,0.51 0.96,0.47 0.95,0.42 0.96,0.35 0.96,0.26 0.95,0.16 0.96,0.03 0.95,-0.11 0.96,-0.31 0.95,-0.48 0.96,-0.66 0.95,-0.86 0.96,-1.05 0.95,-1.24 0.96,-1.44 0.96,-1.66 0.95,-1.83 0.96,-1.99 0.95,-2.15 0.96,-2.29 0.95,-2.41 0.96,-2.53 0.95,-2.65 0.96,-2.74 0.95,-2.81 0.96,-2.89 0.96,-2.95 0.95,-3.02 0.96,-3.07 0.95,-3.13 0.96,-3.19 0.95,-3.24 0.96,-3.28 0.95,-3.34 0.96,-3.38 0.95,-3.43 0.96,-3.46 0.96,-3.51 0.95,-3.52 0.96,-3.55 0.95,-3.55 0.96,-3.55 0.95,-3.55 0.96,-3.52 0.95,-3.49 0.96,-3.45 0.95,-3.4 0.96,-3.34 0.96,-3.28 0.95,-3.2 0.96,-3.12 0.95,-3.04 0.96,-2.96 0.95,-2.88 0.96,-2.8 0.95,-2.74 0.96,-2.66 0.95,-2.6 0.96,-2.55 0.96,-2.51 0.95,-2.48 0.96,-2.46 0.95,-2.45 0.96,-2.44 0.95,-2.46 0.96,-2.47 0.95,-2.49 0.96,-2.52 0.96,-2.53 0.95,-2.57 0.96,-2.59 0.95,-2.6 0.96,-2.61 0.95,-2.62 0.96,-2.59 0.95,-2.58 0.96,-2.54 0.95,-2.48 0.96,-2.41 0.96,-2.34 0.95,-2.24 0.96,-2.14 0.95,-2.04 0.96,-1.92 0.95,-1.78 0.96,-1.66 0.95,-1.53 0.96,-1.42 0.95,-1.3 0.96,-1.19 0.96,-1.09 0.95,-0.98 0.96,-0.9 0.95,-0.82 0.96,-0.77 0.95,-0.71 0.96,-0.66 0.95,-0.63 0.96,-0.59 0.95,-0.57 0.96,-0.55 0.96,-0.54 0.95,-0.52 0.96,-0.52 0.95,-0.5 0.96,-0.5 0.95,-0.48 0.96,-0.47 0.95,-0.46 0.96,-0.45 0.95,-0.43 0.96,-0.41 0.96,-0.4 0.95,-0.38 0.96,-0.36 0.95,-0.34 0.96,-0.33 0.95,-0.31 0.96,-0.29 0.95,-0.28 0.96,-0.26 0.95,-0.25 0.96,-0.23 0.96,-0.23 0.95,-0.21 0.96,-0.2 0.95,-0.18 0.96,-0.18 0.95,-0.16 0.96,-0.16 0.95,-0.15 0.96,-0.13 0.95,-0.13 0.96,-0.12 0.96,-0.11 0.95,-0.1 0.96,-0.09 0.95,-0.09 0.96,-0.08 0.95,-0.07 0.96,-0.07 0.95,-0.07 0.96,-0.07 0.95,-0.06 0.96,-0.06 0.96,-0.06 0.95,-0.06 0.96,-0.07 0.95,-0.06 0.96,-0.07 0.95,-0.07 0.96,-0.07 0.95,-0.07 0.96,-0.07 0.95,-0.08 0.96,-0.07 0.96,-0.07 0.95,-0.07 0.96,-0.06 0.95,-0.07 0.96,-0.06 0.95,-0.05 0.96,-0.06 0.95,-0.04 0.96,-0.04 0.95,-0.04 0.96,-0.03 0.96,-0.03 0.95,-0.02 0.96,-0.01 0.95,-0.01 h 0.96 0.95 l 0.96,0.01 0.95,0.01 0.96,0.02 0.95,0.03 0.96,0.03 0.96,0.03 0.95,0.04 0.96,0.04 0.95,0.05 0.96,0.05 0.95,0.06 0.96,0.05 0.95,0.06 0.96,0.06 0.95,0.05 0.96,0.06 0.96,0.05 0.95,0.04 0.96,0.04 0.95,0.03 0.96,0.03 0.95,0.02 0.96,0.01 h 0.95 l 0.96,-0.01 0.95,-0.02 0.96,-0.02 0.96,-0.03 0.95,-0.04 0.96,-0.04 0.95,-0.05 0.96,-0.06 0.95,-0.05 0.96,-0.06 0.95,-0.06 0.96,-0.05 0.95,-0.06 0.96,-0.05 0.96,-0.05 0.95,-0.05 0.96,-0.04 0.95,-0.04 0.96,-0.04 0.95,-0.03 0.96,-0.03 0.95,-0.02 0.96,-0.03 0.95,-0.01 0.96,-0.02 0.96,-0.01 0.95,-0.01 0.96,-0.01 0.95,-0.01 0.96,-0.01 h 0.95 0.96"
       style="fill:none;stroke:#000000;stroke-width:1.07000005;stroke-linecap:butt;stroke-linejoin:round;stroke-miterlimit:10;stroke-dasharray:none;stroke-opacity:1"
       id="path86"
       inkscape:connector-curvature="0" /><path
       d="M 46.21,32.79 H 583.27 V 284.77 H 46.21 Z"
       style="fill:none;stroke:#333333;stroke-width:1.07000005;stroke-linecap:round;stroke-linejoin:round;stroke-miterlimit:10;stroke-dasharray:none;stroke-opacity:1"
       id="path88"
       inkscape:connector-curvature="0" /></g></g><g
   id="g90" /><g
   id="g92" /><g
   id="g94" /><g
   id="g96" /><g
   id="g98" /><g
   id="g100" /><g
   id="g102" /><g
   id="g104" /><g
   id="g106" /><g
   id="g108" /><g
   id="g110" /><g
   id="g112" /><g
   id="g114" /><g
   id="g116" /><g
   id="g118" /><g
   id="g120"><text
   transform="matrix(1,0,0,-1,18.76,41.01)"
   style="font-variant:normal;font-weight:normal;font-size:9px;font-family:Helvetica;-inkscape-font-specification:Helvetica;writing-mode:lr-tb;fill:#4d4d4d;fill-opacity:1;fill-rule:nonzero;stroke:none"
   id="text124"
   y="0"><tspan
     x="0 5.0040002 7.506 12.51 17.514"
     y="0"
     sodipodi:role="line"
     id="tspan122">0.000</tspan></text>
<text
   transform="matrix(1,0,0,-1,18.76,100.22)"
   style="font-variant:normal;font-weight:normal;font-size:9px;font-family:Helvetica;-inkscape-font-specification:Helvetica;writing-mode:lr-tb;fill:#4d4d4d;fill-opacity:1;fill-rule:nonzero;stroke:none"
   id="text128"
   y="0"><tspan
     x="0 5.0040002 7.506 12.51 17.514"
     y="0"
     sodipodi:role="line"
     id="tspan126">0.005</tspan></text>
<text
   transform="matrix(1,0,0,-1,18.76,159.43)"
   style="font-variant:normal;font-weight:normal;font-size:9px;font-family:Helvetica;-inkscape-font-specification:Helvetica;writing-mode:lr-tb;fill:#4d4d4d;fill-opacity:1;fill-rule:nonzero;stroke:none"
   id="text132"
   y="0"><tspan
     x="0 5.0040002 7.506 12.51 17.514"
     y="0"
     sodipodi:role="line"
     id="tspan130">0.010</tspan></text>
<text
   transform="matrix(1,0,0,-1,18.76,218.64)"
   style="font-variant:normal;font-weight:normal;font-size:9px;font-family:Helvetica;-inkscape-font-specification:Helvetica;writing-mode:lr-tb;fill:#4d4d4d;fill-opacity:1;fill-rule:nonzero;stroke:none"
   id="text136"
   y="0"><tspan
     x="0 5.0040002 7.506 12.51 17.514"
     y="0"
     sodipodi:role="line"
     id="tspan134">0.015</tspan></text>
<text
   transform="matrix(1,0,0,-1,18.76,277.84)"
   style="font-variant:normal;font-weight:normal;font-size:9px;font-family:Helvetica;-inkscape-font-specification:Helvetica;writing-mode:lr-tb;fill:#4d4d4d;fill-opacity:1;fill-rule:nonzero;stroke:none"
   id="text140"
   y="0"><tspan
     x="0 5.0040002 7.506 12.51 17.514"
     y="0"
     sodipodi:role="line"
     id="tspan138">0.020</tspan></text>
</g><g
   id="g142" /><g
   id="g144"><path
     d="m 43.47,44.24 h 2.74"
     style="fill:none;stroke:#333333;stroke-width:1.07000005;stroke-linecap:butt;stroke-linejoin:round;stroke-miterlimit:10;stroke-dasharray:none;stroke-opacity:1"
     id="path146"
     inkscape:connector-curvature="0" /><path
     d="m 43.47,103.45 h 2.74"
     style="fill:none;stroke:#333333;stroke-width:1.07000005;stroke-linecap:butt;stroke-linejoin:round;stroke-miterlimit:10;stroke-dasharray:none;stroke-opacity:1"
     id="path148"
     inkscape:connector-curvature="0" /><path
     d="m 43.47,162.66 h 2.74"
     style="fill:none;stroke:#333333;stroke-width:1.07000005;stroke-linecap:butt;stroke-linejoin:round;stroke-miterlimit:10;stroke-dasharray:none;stroke-opacity:1"
     id="path150"
     inkscape:connector-curvature="0" /><path
     d="m 43.47,221.87 h 2.74"
     style="fill:none;stroke:#333333;stroke-width:1.07000005;stroke-linecap:butt;stroke-linejoin:round;stroke-miterlimit:10;stroke-dasharray:none;stroke-opacity:1"
     id="path152"
     inkscape:connector-curvature="0" /><path
     d="m 43.47,281.07 h 2.74"
     style="fill:none;stroke:#333333;stroke-width:1.07000005;stroke-linecap:butt;stroke-linejoin:round;stroke-miterlimit:10;stroke-dasharray:none;stroke-opacity:1"
     id="path154"
     inkscape:connector-curvature="0" /></g><g
   id="g156" /><g
   id="g158" /><g
   id="g160" /><g
   id="g162" /><g
   id="g164" /><g
   id="g166" /><g
   id="g168" /><g
   id="g170" /><g
   id="g172" /><g
   id="g174"><path
     d="m 83.62,30.05 v 2.74"
     style="fill:none;stroke:#333333;stroke-width:1.07000005;stroke-linecap:butt;stroke-linejoin:round;stroke-miterlimit:10;stroke-dasharray:none;stroke-opacity:1"
     id="path176"
     inkscape:connector-curvature="0" /><path
     d="m 195.81,30.05 v 2.74"
     style="fill:none;stroke:#333333;stroke-width:1.07000005;stroke-linecap:butt;stroke-linejoin:round;stroke-miterlimit:10;stroke-dasharray:none;stroke-opacity:1"
     id="path178"
     inkscape:connector-curvature="0" /><path
     d="m 308.01,30.05 v 2.74"
     style="fill:none;stroke:#333333;stroke-width:1.07000005;stroke-linecap:butt;stroke-linejoin:round;stroke-miterlimit:10;stroke-dasharray:none;stroke-opacity:1"
     id="path180"
     inkscape:connector-curvature="0" /><path
     d="m 420.2,30.05 v 2.74"
     style="fill:none;stroke:#333333;stroke-width:1.07000005;stroke-linecap:butt;stroke-linejoin:round;stroke-miterlimit:10;stroke-dasharray:none;stroke-opacity:1"
     id="path182"
     inkscape:connector-curvature="0" /><path
     d="m 532.4,30.05 v 2.74"
     style="fill:none;stroke:#333333;stroke-width:1.07000005;stroke-linecap:butt;stroke-linejoin:round;stroke-miterlimit:10;stroke-dasharray:none;stroke-opacity:1"
     id="path184"
     inkscape:connector-curvature="0" /></g><g
   id="g186" /><g
   id="g188"><text
   transform="matrix(1,0,0,-1,81.11,21.4)"
   style="font-variant:normal;font-weight:normal;font-size:9px;font-family:Helvetica;-inkscape-font-specification:Helvetica;writing-mode:lr-tb;fill:#4d4d4d;fill-opacity:1;fill-rule:nonzero;stroke:none"
   id="text192"><tspan
     x="0"
     y="0"
     id="tspan190">0</tspan></text>
<text
   transform="matrix(1,0,0,-1,190.81,21.4)"
   style="font-variant:normal;font-weight:normal;font-size:9px;font-family:Helvetica;-inkscape-font-specification:Helvetica;writing-mode:lr-tb;fill:#4d4d4d;fill-opacity:1;fill-rule:nonzero;stroke:none"
   id="text196"
   y="0"><tspan
     x="0 5.0040002"
     y="0"
     sodipodi:role="line"
     id="tspan194">50</tspan></text>
<text
   transform="matrix(1,0,0,-1,300.5,21.4)"
   style="font-variant:normal;font-weight:normal;font-size:9px;font-family:Helvetica;-inkscape-font-specification:Helvetica;writing-mode:lr-tb;fill:#4d4d4d;fill-opacity:1;fill-rule:nonzero;stroke:none"
   id="text200"
   y="0"><tspan
     x="0 5.0040002 10.008"
     y="0"
     sodipodi:role="line"
     id="tspan198">100</tspan></text>
<text
   transform="matrix(1,0,0,-1,412.7,21.4)"
   style="font-variant:normal;font-weight:normal;font-size:9px;font-family:Helvetica;-inkscape-font-specification:Helvetica;writing-mode:lr-tb;fill:#4d4d4d;fill-opacity:1;fill-rule:nonzero;stroke:none"
   id="text204"
   y="0"><tspan
     x="0 5.0040002 10.008"
     y="0"
     sodipodi:role="line"
     id="tspan202">150</tspan></text>
<text
   transform="matrix(1,0,0,-1,524.89,21.4)"
   style="font-variant:normal;font-weight:normal;font-size:9px;font-family:Helvetica;-inkscape-font-specification:Helvetica;writing-mode:lr-tb;fill:#4d4d4d;fill-opacity:1;fill-rule:nonzero;stroke:none"
   id="text208"
   y="0"><tspan
     x="0 5.0040002 10.008"
     y="0"
     sodipodi:role="line"
     id="tspan206">200</tspan></text>
</g><g
   id="g210" /><g
   id="g212" /><g
   id="g214" /><g
   id="g216" /><g
   id="g218" /><g
   id="g220"><text
   transform="matrix(1,0,0,-1,297.79,8.12)"
   style="font-variant:normal;font-weight:normal;font-size:11px;font-family:Helvetica;-inkscape-font-specification:Helvetica;writing-mode:lr-tb;fill:#000000;fill-opacity:1;fill-rule:nonzero;stroke:none"
   id="text224"
   y="0"><tspan
     x="0 10.054 16.17 18.612 24.728001 30.844"
     y="0"
     sodipodi:role="line"
     id="tspan222">Weight</tspan></text>
</g><g
   id="g226" /><g
   id="g228"><text
   transform="matrix(0,1,1,0,13.38,140.44)"
   style="font-variant:normal;font-weight:normal;font-size:11px;font-family:Helvetica;-inkscape-font-specification:Helvetica;writing-mode:lr-tb;fill:#000000;fill-opacity:1;fill-rule:nonzero;stroke:none"
   id="text232"
   y="0"><tspan
     x="0 7.9419999 14.058 20.174 25.674 28.115999 31.174"
     y="0"
     sodipodi:role="line"
     id="tspan230">Density</tspan></text>
</g><g
   id="g234" /><g
   id="g236" /><g
   id="g238" /><g
   id="g240" /><g
   id="g242" /><g
   id="g244" /><g
   id="g246" /><g
   id="g248" /><g
   id="g250" /><g
   id="g252" /><g
   id="g254" /><g
   id="g256" /><text
   xml:space="preserve"
   style="font-style:normal;font-variant:normal;font-weight:normal;font-stretch:normal;font-size:12px;line-height:1.25;font-family:'Ubuntu Mono';-inkscape-font-specification:'Ubuntu Mono';letter-spacing:0px;word-spacing:0px;fill:#000000;fill-opacity:1;stroke:none;stroke-width:0.75"
   x="410.45984"
   y="-258.16623"
   id="text1065"
   transform="scale(1,-1)"><tspan
     sodipodi:role="line"
     id="tspan1063"
     x="410.45984"
     y="-258.16623"
     style="stroke-width:0.75">Area = proportion of babies</tspan><tspan
     sodipodi:role="line"
     x="410.45984"
     y="-243.16623"
     style="stroke-width:0.75"
     id="tspan1067">with birthweights between</tspan><tspan
     sodipodi:role="line"
     x="410.45984"
     y="-228.16623"
     style="stroke-width:0.75"
     id="tspan1069">100 and 130 ounces.</tspan></text>
<path
   style="fill:none;stroke:#000000;stroke-width:3.75000009;stroke-linecap:butt;stroke-linejoin:miter;stroke-opacity:1;stroke-miterlimit:4;stroke-dasharray:none;marker-end:url(#Arrow1Send)"
   d="M 408.83103,245.13575 C 385.21331,276.08312 344.49308,218.2604 344.49308,218.2604"
   id="path1071"
   inkscape:connector-curvature="0" /></g></svg>
